<svg width="16" height="16" viewBox="0 0 16 16" fill="none" xmlns="http://www.w3.org/2000/svg">
<g clip-path="url(#clip0_154_459)">
<path d="M11.9999 8.66667L11.0833 4.084C11.0583 3.95932 10.9983 3.84437 10.9101 3.75271C10.822 3.66104 10.7095 3.59649 10.5859 3.56667L2.15659 1.352C2.04554 1.32515 1.92946 1.32729 1.81947 1.35821C1.70949 1.38914 1.6093 1.44781 1.52851 1.52859C1.44773 1.60938 1.38906 1.70957 1.35814 1.81955C1.32721 1.92953 1.32507 2.04562 1.35192 2.15667L3.56659 10.586C3.59642 10.7096 3.66097 10.8221 3.75263 10.9102C3.84429 10.9983 3.95924 11.0584 4.08392 11.0833L8.66659 12M1.53326 1.53333L6.39059 6.39067M10.4713 14.1953C10.3462 14.3203 10.1767 14.3905 9.99992 14.3905C9.82315 14.3905 9.65361 14.3203 9.52859 14.1953L8.47126 13.138C8.34628 13.013 8.27606 12.8434 8.27606 12.6667C8.27606 12.4899 8.34628 12.3204 8.47126 12.1953L12.1953 8.47133C12.3203 8.34635 12.4898 8.27614 12.6666 8.27614C12.8434 8.27614 13.0129 8.34635 13.1379 8.47133L14.1953 9.52867C14.3202 9.65368 14.3904 9.82322 14.3904 10C14.3904 10.1768 14.3202 10.3463 14.1953 10.4713L10.4713 14.1953ZM8.66659 7.33333C8.66659 8.06971 8.06964 8.66667 7.33326 8.66667C6.59688 8.66667 5.99992 8.06971 5.99992 7.33333C5.99992 6.59695 6.59688 6 7.33326 6C8.06964 6 8.66659 6.59695 8.66659 7.33333Z" stroke="white" stroke-width="2" stroke-linecap="round" stroke-linejoin="round"/>
</g>
<defs>
<clipPath id="clip0_154_459">
<rect width="16" height="16" fill="white"/>
</clipPath>
</defs>
</svg>
